<svg width="46" height="61" viewBox="0 0 46 61" fill="none" xmlns="http://www.w3.org/2000/svg">
<path d="M40.25 20.125H37.375V14.375C37.375 6.46875 30.9062 0 23 0C15.0937 0 8.625 6.46875 8.625 14.375V20.125H5.75C2.58721 20.125 0 22.7122 0 25.875V54.625C0 57.7878 2.58721 60.375 5.75 60.375H40.25C43.4128 60.375 46 57.7878 46 54.625V25.875C46 22.7122 43.4128 20.125 40.25 20.125ZM23 46.2875C19.8372 46.2875 17.25 43.7003 17.25 40.5375C17.25 37.3747 19.8372 34.7875 23 34.7875C26.1628 34.7875 28.75 37.3747 28.75 40.5375C28.75 43.7003 26.1628 46.2875 23 46.2875ZM31.9128 20.125H14.0872V14.375C14.0872 9.48692 18.1126 5.46221 23 5.46221C27.8881 5.46221 31.9128 9.48692 31.9128 14.375V20.125Z" fill="#7DAC3E"/>
<path d="M22.7838 32.5354H21.5979V31.2074C21.5979 29.3814 18.9295 27.8875 15.6682 27.8875C12.4068 27.8875 9.73848 29.3814 9.73848 31.2074V32.5354H8.55254C7.24789 32.5354 6.18066 33.1329 6.18066 33.8633V40.5032C6.18066 41.2337 7.24789 41.8312 8.55254 41.8312H22.7838C24.0884 41.8312 25.1557 41.2337 25.1557 40.5032V33.8633C25.1557 33.1329 24.0884 32.5354 22.7838 32.5354ZM15.6682 38.5777C14.3635 38.5777 13.2963 37.9801 13.2963 37.2497C13.2963 36.5192 14.3635 35.9217 15.6682 35.9217C16.9728 35.9217 18.04 36.5192 18.04 37.2497C18.04 37.9801 16.9728 38.5777 15.6682 38.5777ZM19.3447 32.5354H11.9916V31.2074C11.9916 30.0785 13.6521 29.149 15.6682 29.149C17.6845 29.149 19.3447 30.0785 19.3447 31.2074V32.5354Z" fill="#7DAC3E"/>
<path d="M33.565 37.9978H32.3791V36.6698C32.3791 34.8438 29.7107 33.3499 26.4494 33.3499C23.1881 33.3499 20.5197 34.8438 20.5197 36.6698V37.9978H19.3338C18.0291 37.9978 16.9619 38.5953 16.9619 39.3257V45.9656C16.9619 46.6961 18.0291 47.2936 19.3338 47.2936H33.565C34.8697 47.2936 35.9369 46.6961 35.9369 45.9656V39.3257C35.9369 38.5953 34.8697 37.9978 33.565 37.9978ZM26.4494 44.0401C25.1448 44.0401 24.0775 43.4425 24.0775 42.7121C24.0775 41.9816 25.1448 41.3841 26.4494 41.3841C27.7541 41.3841 28.8213 41.9816 28.8213 42.7121C28.8213 43.4425 27.7541 44.0401 26.4494 44.0401ZM30.1259 37.9978H22.7729V36.6698C22.7729 35.5409 24.4334 34.6114 26.4494 34.6114C28.4657 34.6114 30.1259 35.5409 30.1259 36.6698V37.9978Z" fill="#7DAC3E"/>
<path d="M38.0221 34.8354H36.8361V33.5074C36.8361 31.6815 34.1678 30.1875 30.9064 30.1875C27.6451 30.1875 24.9768 31.6815 24.9768 33.5074V34.8354H23.7908C22.4862 34.8354 21.4189 35.4329 21.4189 36.1634V42.8033C21.4189 43.5337 22.4862 44.1312 23.7908 44.1312H38.0221C39.3267 44.1312 40.3939 43.5337 40.3939 42.8033V36.1634C40.3939 35.4329 39.3267 34.8354 38.0221 34.8354ZM30.9064 40.8777C29.6018 40.8777 28.5346 40.2802 28.5346 39.5497C28.5346 38.8193 29.6018 38.2218 30.9064 38.2218C32.2111 38.2218 33.2783 38.8193 33.2783 39.5497C33.2783 40.2802 32.2111 40.8777 30.9064 40.8777ZM34.583 34.8354H27.2299V33.5074C27.2299 32.3785 28.8904 31.449 30.9064 31.449C32.9228 31.449 34.583 32.3785 34.583 33.5074V34.8354Z" fill="#7DAC3E"/>
</svg>
